HIERARCHY
ROOT reference
{
  OFFSET 0 0 0
  CHANNELS 6 Xposition Yposition Zposition Zrotation Xrotation Yrotation
  JOINT Hips
  {
    OFFSET 19.8941 91.4584 12.6699
    CHANNELS 3 Zrotation Xrotation Yrotation
    JOINT RightUpLeg
    {
      OFFSET -9.21136 -1.54315 -0.00338228
      CHANNELS 3 Zrotation Xrotation Yrotation
      JOINT RightLeg
      {
        OFFSET 0.100199 -41.8913 0.117885
        CHANNELS 3 Zrotation Xrotation Yrotation
        JOINT RightFoot
        {
          OFFSET -0.0312538 -39.9042 0.200326
          CHANNELS 3 Zrotation Xrotation Yrotation
          End Site
          {
            OFFSET 0 -7.69 17.5
          }
        }
      }
    }
    JOINT LeftUpLeg
    {
      OFFSET 9.2904 -1.6473 0.00344049
      CHANNELS 3 Zrotation Xrotation Yrotation
      JOINT LeftLeg
      {
        OFFSET 0.15381 -41.8817 -0.0541105
        CHANNELS 3 Zrotation Xrotation Yrotation
        JOINT LeftFoot
        {
          OFFSET 0.872932 -43.9846 -0.139608
          CHANNELS 3 Zrotation Xrotation Yrotation
          End Site
          {
            OFFSET 0 -7.69 17.5
          }
        }
      }
    }
    JOINT Spine
    {
      OFFSET 0.0768477 14.3139 0.027738
      CHANNELS 3 Zrotation Xrotation Yrotation
      JOINT Spine1
      {
        OFFSET -0.0133682 9.71866 0.00713354
        CHANNELS 3 Zrotation Xrotation Yrotation
        JOINT Spine2
        {
          OFFSET -0.0175262 10.1212 -0.00524987
          CHANNELS 3 Zrotation Xrotation Yrotation
          JOINT Spine3
          {
            OFFSET -0.00348171 9.71796 0.0104149
            CHANNELS 3 Zrotation Xrotation Yrotation
            JOINT Neck
            {
              OFFSET -0.0845439 10.3822 0.044921
              CHANNELS 3 Zrotation Xrotation Yrotation
              JOINT Head
              {
                OFFSET -0.0310878 9.44025 0.0694291
                CHANNELS 3 Zrotation Xrotation Yrotation
                End Site
                {
                  OFFSET 0 15.95 0
                }
              }
            }
            JOINT RightShoulder
            {
              OFFSET -3.20882 6.90619 -0.0326675
              CHANNELS 3 Zrotation Xrotation Yrotation
              JOINT RightArm
              {
                OFFSET -12.8514 -0.0142271 -0.0483735
                CHANNELS 3 Zrotation Xrotation Yrotation
                JOINT RightForeArm
                {
                  OFFSET -26.4475 -0.0994884 -0.035967
                  CHANNELS 3 Zrotation Xrotation Yrotation
                  JOINT RightHand
                  {
                    OFFSET -25.9226 -0.102631 -0.136889
                    CHANNELS 3 Zrotation Xrotation Yrotation
                    JOINT RightHandThumb1
                    {
                      OFFSET -2.48905 0.190105 3.12053
                      CHANNELS 3 Zrotation Xrotation Yrotation
                      JOINT RightHandThumb2
                      {
                        OFFSET -3.68274 0 0
                        CHANNELS 3 Zrotation Xrotation Yrotation
                        JOINT RightHandThumb3
                        {
                          OFFSET -2.55832 0 0
                          CHANNELS 3 Zrotation Xrotation Yrotation
                          End Site
                          {
                            OFFSET -2.194 0 0
                          }
                        }
                      }
                    }
                    JOINT RightInHandIndex
                    {
                      OFFSET -3.22368 0.508421 1.97842
                      CHANNELS 3 Zrotation Xrotation Yrotation
                      JOINT RightHandIndex1
                      {
                        OFFSET -5.21684 -0.091368 0.999158
                        CHANNELS 3 Zrotation Xrotation Yrotation
                        JOINT RightHandIndex2
                        {
                          OFFSET -3.61937 0 0
                          CHANNELS 3 Zrotation Xrotation Yrotation
                          JOINT RightHandIndex3
                          {
                            OFFSET -2.0521 0 0
                            CHANNELS 3 Zrotation Xrotation Yrotation
                            End Site
                            {
                              OFFSET -1.805 0 0
                            }
                          }
                        }
                      }
                    }
                    JOINT RightInHandMiddle
                    {
                      OFFSET -3.38211 0.517263 0.756737
                      CHANNELS 3 Zrotation Xrotation Yrotation
                      JOINT RightHandMiddle1
                      {
                        OFFSET -5.17411 -0.084 0.313895
                        CHANNELS 3 Zrotation Xrotation Yrotation
                        JOINT RightHandMiddle2
                        {
                          OFFSET -3.94947 0 0
                          CHANNELS 3 Zrotation Xrotation Yrotation
                          JOINT RightHandMiddle3
                          {
                            OFFSET -2.47579 0 0
                            CHANNELS 3 Zrotation Xrotation Yrotation
                            End Site
                            {
                              OFFSET -1.975 0 0
                            }
                          }
                        }
                      }
                    }
                    JOINT RightInHandRing
                    {
                      OFFSET -3.36516 0.537895 -0.128947
                      CHANNELS 3 Zrotation Xrotation Yrotation
                      JOINT RightHandRing1
                      {
                        OFFSET -4.63474 -0.022105 -0.478947
                        CHANNELS 3 Zrotation Xrotation Yrotation
                        JOINT RightHandRing2
                        {
                          OFFSET -3.44238 0 0
                          CHANNELS 3 Zrotation Xrotation Yrotation
                          JOINT RightHandRing3
                          {
                            OFFSET -2.3881 0 0
                            CHANNELS 3 Zrotation Xrotation Yrotation
                            End Site
                            {
                              OFFSET -1.857 0 0
                            }
                          }
                        }
                      }
                    }
                    JOINT RightInHandPinky
                    {
                      OFFSET -3.16105 0.469368 -1.20179
                      CHANNELS 3 Zrotation Xrotation Yrotation
                      JOINT RightHandPinky1
                      {
                        OFFSET -4.14105 -0.022105 -1.09053
                        CHANNELS 3 Zrotation Xrotation Yrotation
                        JOINT RightHandPinky2
                        {
                          OFFSET -2.75653 0 0
                          CHANNELS 3 Zrotation Xrotation Yrotation
                          JOINT RightHandPinky3
                          {
                            OFFSET -1.74189 0 0
                            CHANNELS 3 Zrotation Xrotation Yrotation
                            End Site
                            {
                              OFFSET -1.645 0 0
                            }
                          }
                        }
                      }
                    }
                  }
                }
              }
            }
            JOINT LeftShoulder
            {
              OFFSET 3.19355 6.9059 0.0487761
              CHANNELS 3 Zrotation Xrotation Yrotation
              JOINT LeftArm
              {
                OFFSET 12.7349 -0.00433124 -0.0458964
                CHANNELS 3 Zrotation Xrotation Yrotation
                JOINT LeftForeArm
                {
                  OFFSET 26.4064 -0.194468 0.00909971
                  CHANNELS 3 Zrotation Xrotation Yrotation
                  JOINT LeftHand
                  {
                    OFFSET 25.9027 0.0515579 -0.250056
                    CHANNELS 3 Zrotation Xrotation Yrotation
                    JOINT LeftHandThumb1
                    {
                      OFFSET 2.48905 0.190105 3.12053
                      CHANNELS 3 Zrotation Xrotation Yrotation
                      JOINT LeftHandThumb2
                      {
                        OFFSET 3.68274 0 0
                        CHANNELS 3 Zrotation Xrotation Yrotation
                        JOINT LeftHandThumb3
                        {
                          OFFSET 2.55832 0 0
                          CHANNELS 3 Zrotation Xrotation Yrotation
                          End Site
                          {
                            OFFSET 2.194 0 0
                          }
                        }
                      }
                    }
                    JOINT LeftInHandIndex
                    {
                      OFFSET 3.22368 0.508421 1.97842
                      CHANNELS 3 Zrotation Xrotation Yrotation
                      JOINT LeftHandIndex1
                      {
                        OFFSET 5.21684 -0.091368 0.999158
                        CHANNELS 3 Zrotation Xrotation Yrotation
                        JOINT LeftHandIndex2
                        {
                          OFFSET 3.61937 0 0
                          CHANNELS 3 Zrotation Xrotation Yrotation
                          JOINT LeftHandIndex3
                          {
                            OFFSET 2.0521 0 0
                            CHANNELS 3 Zrotation Xrotation Yrotation
                            End Site
                            {
                              OFFSET 1.805 0 0
                            }
                          }
                        }
                      }
                    }
                    JOINT LeftInHandMiddle
                    {
                      OFFSET 3.38211 0.517263 0.756737
                      CHANNELS 3 Zrotation Xrotation Yrotation
                      JOINT LeftHandMiddle1
                      {
                        OFFSET 5.17411 -0.084 0.313895
                        CHANNELS 3 Zrotation Xrotation Yrotation
                        JOINT LeftHandMiddle2
                        {
                          OFFSET 3.94947 0 0
                          CHANNELS 3 Zrotation Xrotation Yrotation
                          JOINT LeftHandMiddle3
                          {
                            OFFSET 2.47579 0 0
                            CHANNELS 3 Zrotation Xrotation Yrotation
                            End Site
                            {
                              OFFSET 1.975 0 0
                            }
                          }
                        }
                      }
                    }
                    JOINT LeftInHandRing
                    {
                      OFFSET 3.36516 0.537895 -0.128947
                      CHANNELS 3 Zrotation Xrotation Yrotation
                      JOINT LeftHandRing1
                      {
                        OFFSET 4.63474 -0.022105 -0.478947
                        CHANNELS 3 Zrotation Xrotation Yrotation
                        JOINT LeftHandRing2
                        {
                          OFFSET 3.44238 0 0
                          CHANNELS 3 Zrotation Xrotation Yrotation
                          JOINT LeftHandRing3
                          {
                            OFFSET 2.3881 0 0
                            CHANNELS 3 Zrotation Xrotation Yrotation
                            End Site
                            {
                              OFFSET 1.857 0 0
                            }
                          }
                        }
                      }
                    }
                    JOINT LeftInHandPinky
                    {
                      OFFSET 3.16105 0.469368 -1.20179
                      CHANNELS 3 Zrotation Xrotation Yrotation
                      JOINT LeftHandPinky1
                      {
                        OFFSET 4.14105 -0.022105 -1.09053
                        CHANNELS 3 Zrotation Xrotation Yrotation
                        JOINT LeftHandPinky2
                        {
                          OFFSET 2.75653 0 0
                          CHANNELS 3 Zrotation Xrotation Yrotation
                          JOINT LeftHandPinky3
                          {
                            OFFSET 1.74189 0 0
                            CHANNELS 3 Zrotation Xrotation Yrotation
                            End Site
                            {
                              OFFSET 1.645 0 0
                            }
                          }
                        }
                      }
                    }
                  }
                }
              }
            }
          }
        }
      }
    }
  }
}
MOTION
Frames: 2
Frame Time: 0.00416667
4.500000000000000000e+02 0.000000000000000000e+00 0.000000000000000000e+00 0.000000000000000000e+00 0.000000000000000000e+00 0.000000000000000000e+00 1.033241320856532197e-01 7.225741872372584695e-02 2.628256246114442363e-02 2.321775801817759291e-02 9.067741929970660197e-03 2.434316067193194322e-03 1.010210553823472496e-01 -9.188809234992881270e-02 -1.280245661579305361e-01 6.703699169293250021e-03 6.018335707490880815e-02 3.208890839302945552e-02 8.746943830433001610e-02 -6.118806089093845046e-02 4.343675867370805355e-02 1.531025389285038500e-02 -5.615211113311373466e-03 1.177533295067032318e-02 2.075443042107524838e-02 2.778035151669122453e-03 -4.682480242038552370e-02 9.089238425913383906e-03 8.913045936388470647e-01 -7.010213821820128477e-02 3.861087879997946934e-03 -1.733894144370145829e-01 -5.148051182517434515e-02 3.821319582450689173e-02 -5.866237123004892640e-01 -2.088702240969729784e-01 -1.008514535668245506e-03 -1.618159072783247748e-02 2.351977944881409460e-02 4.404041258500761627e-04 -3.059456416155043740e-02 1.881129150557664734e-02 -2.840383133200960128e-02 -4.292685774087220407e-01 3.680709210620219940e-01 9.286229944698171090e-02 -3.048232556198334220e-01 6.100029590054467654e-01 -7.114840993919410717e-02 1.121931540958968632e-01 -3.088847230451798320e-01 -1.147593829120557132e+02 -2.512557766144960958e+00 -1.195273924051490724e+02 5.315973749091987832e-01 -1.541168320569971772e+00 6.547351815576994971e-01 0.000000000000000000e+00 0.000000000000000000e+00 0.000000000000000000e+00 1.033494152023424789e-14 9.519316608542743614e-15 0.000000000000000000e+00 3.438544746407630770e-15 8.783602344274818072e-15 0.000000000000000000e+00 4.065928481671154951e-15 3.549843205436873613e-17 -2.745753576797542087e-15 0.000000000000000000e+00 0.000000000000000000e+00 0.000000000000000000e+00 0.000000000000000000e+00 6.219094183671575477e-15 2.743666375575016227e-14 0.000000000000000000e+00 6.631754790646602126e-15 5.202329393253700567e-15 4.065928481671154951e-15 3.549843205436873613e-17 -2.745753576797542087e-15 0.000000000000000000e+00 3.107993235559701990e-15 1.504500243561864768e-14 0.000000000000000000e+00 4.106313808244433409e-16 1.105004557873660038e-14 0.000000000000000000e+00 2.053979447845534882e-15 -3.028386536946982594e-15 4.065928481671154951e-15 3.549843205436873613e-17 -2.745753576797542087e-15 0.000000000000000000e+00 0.000000000000000000e+00 0.000000000000000000e+00 0.000000000000000000e+00 -1.349098861338657888e-15 1.094888209604572363e-14 0.000000000000000000e+00 7.355789113935558152e-15 1.652595136738835450e-14 4.065928481671154951e-15 3.549843205436873613e-17 -2.745753576797542087e-15 0.000000000000000000e+00 0.000000000000000000e+00 0.000000000000000000e+00 0.000000000000000000e+00 6.518341680824211166e-15 2.158439480849609071e-14 0.000000000000000000e+00 -3.715180005656972584e-15 7.662020975346283541e-15 3.301790547093456235e-02 -3.674468259972323847e-01 5.350262399781956502e-01 7.477333131180551318e-01 2.084318152914788613e-01 -1.023086933906567353e+00 4.966614470593508357e-01 -3.798365063239138029e-01 -4.208753349783364017e-01 -6.597473370916104862e-01 -3.564366545430293631e-01 4.259265876635983106e-01 0.000000000000000000e+00 0.000000000000000000e+00 0.000000000000000000e+00 3.427272778030945661e-15 -3.131325012852294683e-15 0.000000000000000000e+00 -5.122017747510226363e-15 -6.197503422721443514e-15 0.000000000000000000e+00 -8.208969874989828994e-15 1.682051307985696482e-15 4.905593273560962605e-15 0.000000000000000000e+00 0.000000000000000000e+00 0.000000000000000000e+00 0.000000000000000000e+00 -2.901680891200020421e-15 -1.130855993206908760e-14 0.000000000000000000e+00 -4.362184948098731733e-15 7.376597745324558290e-15 -8.208969874989828994e-15 1.682051307985696482e-15 4.905593273560962605e-15 0.000000000000000000e+00 -6.129116064121506754e-15 -3.745912862863099303e-15 0.000000000000000000e+00 7.312531705699803452e-15 -6.523544245244889563e-15 0.000000000000000000e+00 -5.045121511274502562e-15 -7.997007048896265160e-15 -8.208969874989828994e-15 1.682051307985696482e-15 4.905593273560962605e-15 0.000000000000000000e+00 0.000000000000000000e+00 0.000000000000000000e+00 0.000000000000000000e+00 4.461727292430293214e-15 -2.174098005476124031e-15 0.000000000000000000e+00 5.233346218678357053e-15 5.344497856060436096e-15 -8.208969874989828994e-15 1.682051307985696482e-15 4.905593273560962605e-15 0.000000000000000000e+00 0.000000000000000000e+00 0.000000000000000000e+00 0.000000000000000000e+00 2.806404048747896667e-16 -3.481820486086682477e-15 0.000000000000000000e+00 7.495941561764470623e-16 3.601395862990329968e-15
4.500000000000000000e+02 0.000000000000000000e+00 0.000000000000000000e+00 0.000000000000000000e+00 0.000000000000000000e+00 0.000000000000000000e+00 1.071613817641600686e-01 6.241029229804417183e-02 1.579283978993029428e-02 3.021950152580343482e-02 -2.557069584264903307e-03 1.275206411315880396e-02 1.006097935387776504e-01 -9.139543733242425083e-02 -1.249631672399594967e-01 5.049794635176792050e-03 6.285857652267107243e-02 3.457784442069174180e-02 9.302629268863492340e-02 -6.224152209808477693e-02 5.268622049467677759e-02 1.621100789781728183e-02 -9.584291968316768773e-03 1.456984132222447804e-02 1.684951481863073558e-02 4.441456602536131325e-04 -4.058518446174451400e-02 4.158733212642555868e-03 9.007333932905677853e-01 -2.980107997160348632e-02 3.903567727197847226e-03 -1.761994840667585049e-01 -4.082683619188512414e-02 3.809246151520923745e-02 -5.950774989875625698e-01 -1.914177963301068319e-01 -1.230200765933911868e-03 -1.496085084621005638e-02 2.123739259713113003e-02 1.305023836454967238e-04 -2.916763910547827757e-02 1.649789420604607509e-02 -3.789823081978118541e-02 -4.137811925579914507e-01 3.245481652051366850e-01 1.049223904755120229e-01 -3.065729559675137161e-01 6.265716910630502179e-01 -1.981254094116837172e-01 1.245344334046310925e-01 -2.218717087987721881e-01 -1.152070587380973024e+02 -2.677976895378673561e+00 -1.200449906054642639e+02 5.860313671168120297e-01 -1.572414201205388773e+00 7.023401350781787178e-01 0.000000000000000000e+00 0.000000000000000000e+00 0.000000000000000000e+00 9.974678888565786982e-15 9.502944049641498034e-15 0.000000000000000000e+00 3.373793727560340426e-15 8.481068330625627323e-15 0.000000000000000000e+00 3.974681191793354486e-15 1.399061102527490370e-16 -2.631444377038172447e-15 0.000000000000000000e+00 0.000000000000000000e+00 0.000000000000000000e+00 0.000000000000000000e+00 6.067629949170628285e-15 2.715788495119765981e-14 0.000000000000000000e+00 6.393978743025063892e-15 4.974235839077070710e-15 3.974681191793354486e-15 1.399061102527490370e-16 -2.631444377038172447e-15 0.000000000000000000e+00 3.209384645977956436e-15 1.503157792100907929e-14 0.000000000000000000e+00 3.885467911838450977e-16 1.096909925438050914e-14 0.000000000000000000e+00 2.152413792934546703e-15 -3.166541289589297458e-15 3.974681191793354486e-15 1.399061102527490370e-16 -2.631444377038172447e-15 0.000000000000000000e+00 0.000000000000000000e+00 0.000000000000000000e+00 0.000000000000000000e+00 -1.433439769672507471e-15 1.083889396349650268e-14 0.000000000000000000e+00 7.179007672502141659e-15 1.596499449095591708e-14 3.974681191793354486e-15 1.399061102527490370e-16 -2.631444377038172447e-15 0.000000000000000000e+00 0.000000000000000000e+00 0.000000000000000000e+00 0.000000000000000000e+00 6.361806865738856296e-15 2.098145640187218683e-14 0.000000000000000000e+00 -3.654360289405465148e-15 7.119275887290264309e-15 3.224941725929230535e-02 -3.540179554634163561e-01 5.486202426143590438e-01 6.902144111159953521e-01 2.109760950537235002e-01 -9.749353261225809364e-01 5.031339558430686365e-01 -5.923757678647704195e-01 -4.214306882036228941e-01 -4.992076603470974039e-01 -3.489614086369178247e-01 3.690829429942579787e-01 0.000000000000000000e+00 0.000000000000000000e+00 0.000000000000000000e+00 3.441021402832182815e-15 -3.033498421583616945e-15 0.000000000000000000e+00 -4.836712121472007419e-15 -5.931316845470307912e-15 0.000000000000000000e+00 -7.878434308254502978e-15 1.752548442480482925e-15 5.017495072033109993e-15 0.000000000000000000e+00 0.000000000000000000e+00 0.000000000000000000e+00 0.000000000000000000e+00 -2.840124642296318128e-15 -1.113473701282864824e-14 0.000000000000000000e+00 -4.268331209975657585e-15 7.350338039156006196e-15 -7.878434308254502978e-15 1.752548442480482925e-15 5.017495072033109993e-15 0.000000000000000000e+00 -6.050910716282527905e-15 -3.668709172100370324e-15 0.000000000000000000e+00 6.989118047145908164e-15 -6.674994256621020063e-15 0.000000000000000000e+00 -4.947369889741551600e-15 -7.630922632428244103e-15 -7.878434308254502978e-15 1.752548442480482925e-15 5.017495072033109993e-15 0.000000000000000000e+00 0.000000000000000000e+00 0.000000000000000000e+00 0.000000000000000000e+00 4.476575069926124715e-15 -1.988972050802041272e-15 0.000000000000000000e+00 4.997674731548972317e-15 5.566967001702680891e-15 -7.878434308254502978e-15 1.752548442480482925e-15 5.017495072033109993e-15 0.000000000000000000e+00 0.000000000000000000e+00 0.000000000000000000e+00 0.000000000000000000e+00 2.272503859918481030e-16 -3.356197124774379580e-15 0.000000000000000000e+00 6.847743945529775514e-16 3.664884269123783523e-15
